name Walk8.mot
datacolumns 19
datarows 22
range 1.90700000 1.92800000
endheader

                time	   L_ground_force_vx	   L_ground_force_vy	   L_ground_force_vz	   L_ground_force_px	   L_ground_force_py	   L_ground_force_pz	   R_ground_force_vx	   R_ground_force_vy	   R_ground_force_vz	   R_ground_force_px	   R_ground_force_py	   R_ground_force_pz	   L_ground_torque_x	   L_ground_torque_y	   L_ground_torque_z	   R_ground_torque_x	   R_ground_torque_y	   R_ground_torque_z	
          1.90700000	          0.00000000	          0.00000000	          0.00000000	          0.00000000	          0.00000000	          0.00000000	         -9.04469122	        506.82190419	        -30.65933000	          0.29226271	          0.00000000	          0.11179044	          0.00000000	          0.00000000	          0.00000000	          0.00000000	          0.22535595	          0.00000000	
          1.90800000	          0.00000000	          0.00000000	          0.00000000	          0.00000000	          0.00000000	          0.00000000	         -8.84365670	        507.01637475	        -30.42428474	          0.29263493	          0.00000000	          0.11171869	          0.00000000	          0.00000000	          0.00000000	          0.00000000	          0.23857644	          0.00000000	
          1.90900000	          0.00000000	          0.00000000	          0.00000000	          0.00000000	          0.00000000	          0.00000000	         -8.64250232	        507.25720834	        -30.20758301	          0.29300107	          0.00000000	          0.11168184	          0.00000000	          0.00000000	          0.00000000	          0.00000000	          0.25299652	          0.00000000	
          1.91000000	          0.00000000	          0.00000000	          0.00000000	          0.00000000	          0.00000000	          0.00000000	         -8.44382652	        507.49890335	        -30.00580279	          0.29333843	          0.00000000	          0.11164504	          0.00000000	          0.00000000	          0.00000000	          0.00000000	          0.26620725	          0.00000000	
          1.91100000	          0.00000000	          0.00000000	          0.00000000	          0.00000000	          0.00000000	          0.00000000	         -8.25397285	        507.70536590	        -29.81407352	          0.29365659	          0.00000000	          0.11157555	          0.00000000	          0.00000000	          0.00000000	          0.00000000	          0.27885940	          0.00000000	
          1.91200000	          0.00000000	          0.00000000	          0.00000000	          0.00000000	          0.00000000	          0.00000000	         -8.08048891	        507.89761574	        -29.62735671	          0.29398632	          0.00000000	          0.11147385	          0.00000000	          0.00000000	          0.00000000	          0.00000000	          0.29535557	          0.00000000	
          1.91300000	          0.00000000	          0.00000000	          0.00000000	          0.00000000	          0.00000000	          0.00000000	         -7.92883738	        508.13818119	        -29.44956670	          0.29435361	          0.00000000	          0.11138491	          0.00000000	          0.00000000	          0.00000000	          0.00000000	          0.31916717	          0.00000000	
          1.91400000	          0.00000000	          0.00000000	          0.00000000	          0.00000000	          0.00000000	          0.00000000	         -7.80143127	        508.46553619	        -29.29507631	          0.29477277	          0.00000000	          0.11135824	          0.00000000	          0.00000000	          0.00000000	          0.00000000	          0.34816712	          0.00000000	
          1.91500000	          0.00000000	          0.00000000	          0.00000000	          0.00000000	          0.00000000	          0.00000000	         -7.69491592	        508.84218041	        -29.17629959	          0.29523713	          0.00000000	          0.11138621	          0.00000000	          0.00000000	          0.00000000	          0.00000000	          0.37764580	          0.00000000	
          1.91600000	          0.00000000	          0.00000000	          0.00000000	          0.00000000	          0.00000000	          0.00000000	         -7.59596880	        509.18213196	        -29.09099446	          0.29571783	          0.00000000	          0.11140306	          0.00000000	          0.00000000	          0.00000000	          0.00000000	          0.40608629	          0.00000000	
          1.91700000	          0.00000000	          0.00000000	          0.00000000	          0.00000000	          0.00000000	          0.00000000	         -7.48800536	        509.43674792	        -29.02466934	          0.29618024	          0.00000000	          0.11134408	          0.00000000	          0.00000000	          0.00000000	          0.00000000	          0.43422917	          0.00000000	
          1.91800000	          0.00000000	          0.00000000	          0.00000000	          0.00000000	          0.00000000	          0.00000000	         -7.36917818	        509.64799099	        -28.96187837	          0.29660036	          0.00000000	          0.11120020	          0.00000000	          0.00000000	          0.00000000	          0.00000000	          0.45965284	          0.00000000	
          1.91900000	          0.00000000	          0.00000000	          0.00000000	          0.00000000	          0.00000000	          0.00000000	         -7.25741223	        509.91637973	        -28.89471036	          0.29699011	          0.00000000	          0.11102523	          0.00000000	          0.00000000	          0.00000000	          0.00000000	          0.47622629	          0.00000000	
          1.92000000	          0.00000000	          0.00000000	          0.00000000	          0.00000000	          0.00000000	          0.00000000	         -7.17001783	        510.30693555	        -28.82541954	          0.29740033	          0.00000000	          0.11088094	          0.00000000	          0.00000000	          0.00000000	          0.00000000	          0.48040766	          0.00000000	
          1.92100000	          0.00000000	          0.00000000	          0.00000000	          0.00000000	          0.00000000	          0.00000000	         -7.10531179	        510.79611321	        -28.75750548	          0.29786290	          0.00000000	          0.11078241	          0.00000000	          0.00000000	          0.00000000	          0.00000000	          0.47658808	          0.00000000	
          1.92200000	          0.00000000	          0.00000000	          0.00000000	          0.00000000	          0.00000000	          0.00000000	         -7.05086626	        511.32961832	        -28.68660074	          0.29836047	          0.00000000	          0.11071743	          0.00000000	          0.00000000	          0.00000000	          0.00000000	          0.47456126	          0.00000000	
          1.92300000	          0.00000000	          0.00000000	          0.00000000	          0.00000000	          0.00000000	          0.00000000	         -6.99693058	        511.89168879	        -28.60872012	          0.29887206	          0.00000000	          0.11068644	          0.00000000	          0.00000000	          0.00000000	          0.00000000	          0.48158318	          0.00000000	
          1.92400000	          0.00000000	          0.00000000	          0.00000000	          0.00000000	          0.00000000	          0.00000000	         -6.93501010	        512.48995491	        -28.53174602	          0.29939285	          0.00000000	          0.11069091	          0.00000000	          0.00000000	          0.00000000	          0.00000000	          0.49921689	          0.00000000	
          1.92500000	          0.00000000	          0.00000000	          0.00000000	          0.00000000	          0.00000000	          0.00000000	         -6.85990066	        513.12709525	        -28.47018671	          0.29991268	          0.00000000	          0.11071526	          0.00000000	          0.00000000	          0.00000000	          0.00000000	          0.52813634	          0.00000000	
          1.92600000	          0.00000000	          0.00000000	          0.00000000	          0.00000000	          0.00000000	          0.00000000	         -6.77832581	        513.81273378	        -28.43187778	          0.30041892	          0.00000000	          0.11074280	          0.00000000	          0.00000000	          0.00000000	          0.00000000	          0.56825501	          0.00000000	
          1.92700000	          0.00000000	          0.00000000	          0.00000000	          0.00000000	          0.00000000	          0.00000000	         -6.70102331	        514.55392709	        -28.41809306	          0.30090299	          0.00000000	          0.11076251	          0.00000000	          0.00000000	          0.00000000	          0.00000000	          0.61195763	          0.00000000	
          1.92800000	          0.00000000	          0.00000000	          0.00000000	          0.00000000	          0.00000000	          0.00000000	         -6.62282056	        515.31902504	        -28.43155983	          0.30135674	          0.00000000	          0.11075017	          0.00000000	          0.00000000	          0.00000000	          0.00000000	          0.64803982	          0.00000000	
